<?xml version="1.0" encoding="utf-8"?>
<!-- Generator: Adobe Illustrator 26.3.1, SVG Export Plug-In . SVG Version: 6.00 Build 0)  -->
<svg version="1.1" id="Layer_1" xmlns="http://www.w3.org/2000/svg" xmlns:xlink="http://www.w3.org/1999/xlink" x="0px" y="0px"
	 viewBox="0 0 561.6 528.8" style="enable-background:new 0 0 561.6 528.8;" xml:space="preserve">
<style type="text/css">
	.st0{fill:#FFFFFF;}
</style>
<g id="Background">
</g>
<g id="Creative">
</g>
<g id="Woodlands">
</g>
<g>
	<g id="Stump">
		<polygon class="st0" points="322,458 281.2,458 239.9,458 239.9,514.3 281,514.3 322,514.3 		"/>
	</g>
	<g id="Middle_Trangle">
		<polygon class="st0" points="343.5,422.7 281.2,314.8 219,422.7 206.2,444.9 309.6,444.9 323.2,444.9 356.3,444.9 		"/>
	</g>
	<g id="Right_Teal_Side">
		<polygon class="st0" points="463.3,370 456.8,358.8 396.1,358.8 447.7,448 508.3,448 		"/>
	</g>
	<g id="Left_Teal_Side">
		<polygon class="st0" points="104.9,358.7 98.4,369.9 53.3,448 114,448 165.6,358.7 		"/>
	</g>
	<g id="Right_Teal_Tip">
		<polygon class="st0" points="354.5,416.2 413,416.2 457.5,492.6 335.1,492.6 335.1,458.3 379,458.3 		"/>
	</g>
	<g id="Left_Teal_Tip">
		<polygon class="st0" points="207.4,416.2 148.9,416.2 104.4,492.6 226.8,492.6 226.8,458.3 183,458.3 		"/>
	</g>
	<g id="Dark_Green_Top">
		<polygon class="st0" points="281.2,288.4 347.4,403 408.1,403 362.2,323.5 281.2,183.3 200.3,323.5 154.5,403 215.1,403 		"/>
	</g>
	<g id="Right_Dark_Green_Side">
		<g>
			<polygon class="st0" points="398.2,254.8 404.7,266 450.5,345.4 390,345.6 337.5,254.8 			"/>
		</g>
	</g>
	<g id="Left_Dark_Green_Side">
		<g>
			<polygon class="st0" points="164.4,254.8 157.9,266 112.1,345.4 172.6,345.6 225.1,254.8 			"/>
		</g>
	</g>
	<g id="Light_Green_Top">
		<polygon class="st0" points="281.2,156.4 330.4,241.5 391,241.5 362.2,191.5 281.2,51.4 200.3,191.5 171.4,241.5 232.1,241.5 		
			"/>
	</g>
</g>
</svg>
