<?xml version="1.0" encoding="utf-8"?>
<!-- Generator: Adobe Illustrator 26.2.1, SVG Export Plug-In . SVG Version: 6.00 Build 0)  -->
<svg version="1.1" xmlns="http://www.w3.org/2000/svg" xmlns:xlink="http://www.w3.org/1999/xlink" x="0px" y="0px"
	 viewBox="0 0 1080 1080" style="enable-background:new 0 0 1080 1080;" xml:space="preserve">
<style type="text/css">
	.st0{fill:#FFFFFF;}
</style>
<g id="Background">
</g>
<g id="Creative">
</g>
<g id="Woodlands">
</g>
<g id="Stump">
	<polygon class="st0" points="584.3,593.2 543.5,593.2 502.2,593.2 502.2,649.5 543.3,649.5 584.3,649.5 	"/>
</g>
<g id="Middle_Trangle">
	<polygon class="st0" points="605.8,557.9 543.5,450 481.3,557.9 468.5,580.1 571.9,580.1 585.5,580.1 618.6,580.1 	"/>
</g>
<g id="Right_Teal_Side">
	<polygon class="st0" points="725.6,505.2 719.1,494 658.4,494 710,583.2 770.6,583.2 	"/>
</g>
<g id="Left_Teal_Side">
	<polygon class="st0" points="367.2,493.9 360.7,505.1 315.6,583.2 376.3,583.2 427.9,493.9 	"/>
</g>
<g id="Right_Teal_Tip">
	<polygon class="st0" points="616.8,551.4 675.3,551.4 719.8,627.8 597.4,627.8 597.4,593.5 641.3,593.5 	"/>
</g>
<g id="Left_Teal_Tip">
	<polygon class="st0" points="469.7,551.4 411.2,551.4 366.7,627.8 489.1,627.8 489.1,593.5 445.3,593.5 	"/>
</g>
<g id="Dark_Green_Top">
	<polygon class="st0" points="543.5,423.6 609.7,538.2 670.4,538.2 624.5,458.7 543.5,318.5 462.6,458.7 416.8,538.2 477.4,538.2 	
		"/>
</g>
<g id="Right_Dark_Green_Side">
	<g>
		<polygon class="st0" points="660.5,390 667,401.2 712.8,480.6 652.3,480.8 599.8,390 		"/>
	</g>
</g>
<g id="Left_Dark_Green_Side">
	<g>
		<polygon class="st0" points="426.7,390 420.2,401.2 374.4,480.6 434.9,480.8 487.4,390 		"/>
	</g>
</g>
<g id="Light_Green_Top">
	<polygon class="st0" points="543.5,291.6 592.7,376.7 653.3,376.7 624.5,326.7 543.5,186.6 462.6,326.7 433.7,376.7 494.4,376.7 	
		"/>
</g>
</svg>
