<?xml version="1.0" encoding="utf-8"?>
<!-- Generator: Adobe Illustrator 26.2.1, SVG Export Plug-In . SVG Version: 6.00 Build 0)  -->
<svg version="1.1" id="Layer_1" xmlns="http://www.w3.org/2000/svg" xmlns:xlink="http://www.w3.org/1999/xlink" x="0px" y="0px"
	 viewBox="0 0 50 50" style="enable-background:new 0 0 50 50;" xml:space="preserve">
<style type="text/css">
	.st0{fill:none;stroke:#FFFFFF;stroke-width:2;stroke-miterlimit:10;}
	.st1{fill-rule:evenodd;clip-rule:evenodd;fill:#FFFFFF;}
</style>
<circle id="XMLID_15_" class="st0" cx="25.33" cy="24.74" r="22.5"/>
<path id="XMLID_3_" class="st1" d="M20.62,14.52h9.45c3.03,0,5.53,2.5,5.53,5.53v9.39c0,3.03-2.5,5.53-5.53,5.53h-9.45
	c-3.03,0-5.53-2.5-5.53-5.53v-9.39C15.09,17.01,17.58,14.52,20.62,14.52L20.62,14.52z M30.84,18.09L30.84,18.09
	c0.63,0,1.17,0.53,1.17,1.17l0,0c0,0.63-0.53,1.17-1.17,1.17l0,0c-0.69,0-1.17-0.53-1.17-1.17l0,0
	C29.67,18.62,30.16,18.09,30.84,18.09L30.84,18.09z M25.31,19.16h0.05c3.03,0,5.58,2.55,5.58,5.58l0,0c0,3.08-2.55,5.58-5.58,5.58
	h-0.05c-3.03,0-5.53-2.5-5.53-5.58l0,0C19.78,21.71,22.28,19.16,25.31,19.16L25.31,19.16z M25.31,21.07h0.05
	c2,0,3.67,1.67,3.67,3.67l0,0c0,2.06-1.67,3.72-3.67,3.72h-0.05c-2,0-3.67-1.67-3.67-3.72l0,0C21.65,22.74,23.31,21.07,25.31,21.07
	L25.31,21.07z M20.66,16.28h9.35c2.1,0,3.82,1.71,3.82,3.82v9.29c0,2.1-1.71,3.82-3.82,3.82h-9.35c-2.1,0-3.82-1.71-3.82-3.82V20.1
	C16.85,17.99,18.57,16.28,20.66,16.28L20.66,16.28z"/>
</svg>
