<?xml version="1.0" encoding="utf-8"?>
<!-- Generator: Adobe Illustrator 26.2.1, SVG Export Plug-In . SVG Version: 6.00 Build 0)  -->
<svg version="1.1" id="Layer_1" xmlns="http://www.w3.org/2000/svg" xmlns:xlink="http://www.w3.org/1999/xlink" x="0px" y="0px"
	 viewBox="0 0 50 50" style="enable-background:new 0 0 50 50;" xml:space="preserve">
<style type="text/css">
	.st0{fill:none;stroke:#FFFFFF;stroke-width:2;stroke-miterlimit:10;}
	.st1{fill-rule:evenodd;clip-rule:evenodd;fill:#FFFFFF;}
</style>
<g id="XMLID_8_">
	<circle id="XMLID_15_" class="st0" cx="25.33" cy="24.74" r="22.5"/>
</g>
<g id="XMLID_12_">
	<path id="XMLID_13_" class="st1" d="M16.08,20.74h4.01v13.47h-4.01C16.08,34.21,16.08,20.74,16.08,20.74z M18.07,13.91
		c1.34,0,2.43,1.09,2.43,2.43s-1.09,2.43-2.43,2.43c-1.34,0-2.37-1.09-2.37-2.43C15.69,15,16.73,13.91,18.07,13.91L18.07,13.91z
		 M22.47,20.74h3.96v1.88c0.84-1.23,2.23-2.03,3.81-2.03h1.09c2.52,0,4.55,2.08,4.55,4.55v2.03v2.43v4.61h-3.96v-0.04v-1.19l0,0
		v-6.04l0,0c-0.04-1.53-1.09-2.72-2.62-2.72l0,0c-1.53,0-2.83,1.19-2.87,2.72l0,0v5.25v2.03h-3.96
		C22.47,34.22,22.47,20.74,22.47,20.74z"/>
</g>
</svg>
